<svg xmlns="http://www.w3.org/2000/svg" viewBox="0 0 196 196"><g id="Layer_2" data-name="Layer 2"><g id="creative"><path d="M196,98c0-12.31-14.95-22.68-35.39-25.94C172.77,55.32,176,37.41,167.3,28.7s-26.62-5.47-43.36,6.69C120.68,15,110.31,0,98,0S75.32,15,72.06,35.39C55.32,23.23,37.41,20,28.7,28.7s-5.47,26.62,6.69,43.36C15,75.32,0,85.69,0,98s15,22.68,35.39,25.94C23.23,140.68,20,158.59,28.7,167.3s26.62,5.47,43.36-6.69C75.32,181.05,85.69,196,98,196s22.68-14.95,25.94-35.39c16.74,12.16,34.65,15.39,43.36,6.69s5.47-26.62-6.69-43.36C181.05,120.68,196,110.31,196,98ZM98,138a40,40,0,1,1,40-40A40,40,0,0,1,98,138Z"/></g></g></svg>