<svg xmlns="http://www.w3.org/2000/svg" viewBox="0 0 147.16 196"><g id="Layer_2" data-name="Layer 2"><g id="mvp"><path d="M55.47,0H20V61.87a80.78,80.78,0,0,1,35.5-18.31Z"/><path d="M125,60V0H89.49V43.07A80.61,80.61,0,0,1,125,60Z"/><path d="M89.49,50.58h0c2,.45,4,1,6,1.57C93.51,51.54,91.51,51,89.49,50.58Z"/><path d="M111,59c1.53.91,3,1.87,4.48,2.87C114,60.9,112.5,59.94,111,59Z"/><path d="M117.61,63.46q2.82,2.12,5.45,4.49Q120.44,65.58,117.61,63.46Z"/><path d="M144.85,104c-.61-2.35-1.33-4.66-2.15-6.91a72.93,72.93,0,0,0-4.42-9.77A74,74,0,0,0,123.06,68q-2.62-2.37-5.45-4.49-1.06-.8-2.16-1.56c-1.45-1-3-2-4.48-2.87-.76-.45-1.53-.89-2.32-1.31a72.49,72.49,0,0,0-13.19-5.57c-1.95-.61-3.95-1.12-6-1.57-1.55-.34-3.11-.65-4.7-.89a74.28,74.28,0,0,0-22.41,0c-2.34.35-4.65.83-6.91,1.4-1.27.32-2.53.67-3.77,1.06A73.18,73.18,0,0,0,29.56,63.46Q26.73,65.58,24.11,68A73.75,73.75,0,0,0,8.88,87.35a72.93,72.93,0,0,0-4.42,9.77c-.82,2.25-1.54,4.56-2.14,6.91a73.4,73.4,0,0,0,12.3,62.41q2.12,2.84,4.5,5.45a69.09,69.09,0,0,0,5,5q2.61,2.38,5.45,4.5a73.39,73.39,0,0,0,44,14.62,74,74,0,0,0,11.21-.85,72.69,72.69,0,0,0,23.86-8c.79-.43,1.56-.86,2.32-1.32,1.53-.9,3-1.86,4.48-2.87.73-.5,1.45-1,2.16-1.55q2.82-2.12,5.45-4.5t5-5q2.37-2.61,4.49-5.45A73.79,73.79,0,0,0,144.85,104Zm-71.27,72.2a53.81,53.81,0,1,1,53.81-53.81A53.81,53.81,0,0,1,73.58,176.23Z"/><path d="M84.9,141.33h17.66V158H45V141.33H63.46V105.74Q52.93,110.41,47,111.23V94.39Q63,90.94,68.67,82H84.9Z"/></g></g></svg>