<svg xmlns="http://www.w3.org/2000/svg" viewBox="0 0 172.3 196"><g id="Layer_2" data-name="Layer 2"><g id="perfect-attendance"><path d="M86.15,0,0,20.72s1.09,96,25.08,125.41S86.15,196,86.15,196s37.07-20.43,61.07-49.87S172.3,20.72,172.3,20.72Zm54.09,140.44c-17.87,21.93-43.88,38.91-54.09,45.12-10.22-6.21-36.22-23.19-54.09-45.12C15.49,120.11,10.15,57.79,9.16,27.77l77-18.51,77,18.51C162.14,57.79,156.81,120.11,140.24,140.44Z"/><path d="M86.15,17a66,66,0,1,0,66,66A66,66,0,0,0,86.15,17Zm0,108a42,42,0,1,1,42-42A42,42,0,0,1,86.15,125Z"/><polygon points="86.15 47 78.38 70.9 53.25 70.9 73.58 85.67 65.82 109.57 86.15 94.8 106.48 109.57 98.71 85.67 119.05 70.9 93.91 70.9 86.15 47"/></g></g></svg>